<?xml version="1.0" ?><svg viewBox="0 0 64 64" xmlns="http://www.w3.org/2000/svg"><title/><g id="flat"><path d="M21.565,34.577,15.793,29.8a19.01,19.01,0,0,0-5.106-3.045l-.571-.227A7.43,7.43,0,1,1,16.2,12.98l2.961,1.469-.895,1.789L15.3,14.77a5.429,5.429,0,1,0-4.445,9.9l.572.228a20.98,20.98,0,0,1,5.644,3.365l5.772,4.781Z" style="fill:#f39500"/><path d="M18,11V7a4,4,0,0,0-4-4H50a3.995,3.995,0,0,0-4,4V24.84a14.992,14.992,0,0,1-7.634,13.07A9.693,9.693,0,0,1,35,39h0v1H29V39h0a9.693,9.693,0,0,1-3.366-1.09A14.992,14.992,0,0,1,18,24.84Z" style="fill:#ffbb1d"/><path d="M42.435,34.577,48.207,29.8a19.01,19.01,0,0,1,5.106-3.045l.571-.227A7.43,7.43,0,1,0,47.8,12.98l-2.961,1.469.9,1.789L48.7,14.77a5.429,5.429,0,1,1,4.445,9.9l-.572.228a20.98,20.98,0,0,0-5.644,3.365l-5.772,4.781Z" style="fill:#f39500"/><rect height="4" style="fill:#ffdb58" width="25" x="18" y="7"/><path d="M47,3a3.995,3.995,0,0,0-4,4V24.84a14.992,14.992,0,0,1-7.634,13.07A9.693,9.693,0,0,1,32,39v1h3V39a9.693,9.693,0,0,0,3.366-1.09A14.992,14.992,0,0,0,46,24.84V7a3.995,3.995,0,0,1,4-4Z" style="fill:#f39500"/><path d="M48,55v5a1,1,0,0,1-1,1H17a1,1,0,0,1-1-1V55a1,1,0,0,1,1-1H47A1,1,0,0,1,48,55Z" style="fill:#f39500"/><path d="M44,52.6V54H20V52.6a2.007,2.007,0,0,1,1.57-1.95l4.3-.95A4,4,0,0,0,29,45.79V39h6v6.79a4,4,0,0,0,3.13,3.91l4.3.95A2.007,2.007,0,0,1,44,52.6Z" style="fill:#ffdb58"/><path d="M42.43,50.65l-4.3-.95A4,4,0,0,1,35,45.79V39H33.5v8.29a4,4,0,0,0,3.13,3.91l4.3.95A2,2,0,0,1,42.491,54H44V52.6A2.007,2.007,0,0,0,42.43,50.65Z" style="fill:#ffbb1d"/><circle cx="32" cy="25" r="7" style="fill:#f39500"/><polygon points="34.564 25.887 38.712 22.873 33.584 22.873 32 18 30.416 22.873 25.288 22.873 29.436 25.887 27.85 30.767 32 27.751 36.15 30.767 34.564 25.887" style="fill:#ffdb58"/><rect height="2" style="fill:#ffdb58" width="2" x="21" y="13"/><rect height="4" style="fill:#ffdb58" width="2" x="21" y="17"/><rect height="4" style="fill:#ffbb1d" width="3" x="43" y="7"/></g></svg>