<?xml version="1.0" ?><!DOCTYPE svg  PUBLIC '-//W3C//DTD SVG 1.1//EN'  'http://www.w3.org/Graphics/SVG/1.1/DTD/svg11.dtd'><svg height="520px" style="enable-background:new 0 0 520 520;" version="1.1" viewBox="0 0 520 520" width="520px" xml:space="preserve" xmlns="http://www.w3.org/2000/svg" xmlns:xlink="http://www.w3.org/1999/xlink"><g id="_x37_85_x2C__Cryptocurrency_x2C__distributed_x2C__distributed_ledger_book"><g><g><path d="M223.75,240h-40.11H120v50v150h140V276.25C260,256.23,243.77,240,223.75,240z" style="fill:#ECF0F1;"/><polygon points="150,290 150,320 150,400 190,400 230,400 230,320 230,290    " style="fill:#A5C63B;"/><rect height="80" style="fill:#536949;" width="40" x="190" y="320"/><rect height="80" style="fill:#6E8C61;" width="40" x="150" y="320"/><polygon points="230,290 230,320 190,320 150,320 150,290    " style="fill:#A5C63B;"/><path d="M75,60c8.28,0,15,6.72,15,15s-6.72,15-15,15s-15-6.72-15-15S66.72,60,75,60z" style="fill:#74829C;"/><path d="M315,40c13.81,0,25,11.19,25,25s-11.19,25-25,25s-25-11.19-25-25S301.19,40,315,40z" style="fill:#74829C;"/><path d="M440,160c11.05,0,20,8.95,20,20s-8.95,20-20,20s-20-8.95-20-20S428.95,160,440,160z" style="fill:#74829C;"/><polygon points="430,290 430,470 290,470 290,480 230,480 230,470 90,470 90,290 120,290 120,440 260,440      400,440 400,290    " style="fill:#4E679B;"/><path d="M296.25,240c-20.02,0-36.25,16.23-36.25,36.25V440h140V290v-50H296.25z" style="fill:#DCDFE0;"/><polygon points="350,240 350,330 330,360 310,330 310,240 310,220 350,220    " style="fill:#3C3B3D;"/><path d="M350,201v20h-40v-20c0-11.05,8.95-20,20-20c5.52,0,10.52,2.24,14.14,5.86     C347.76,190.48,350,195.48,350,201z" style="fill:#F14742;"/><path d="M183.64,87.27c-42.18,0-76.37,34.19-76.37,76.37c0,42.17,34.19,76.36,76.37,76.36     c42.17,0,76.36-34.19,76.36-76.36C260,121.46,225.81,87.27,183.64,87.27z" style="fill:#FFD24D;"/><path d="M457.07,42.93c1.81,1.81,2.93,4.31,2.93,7.07c0,5.52-4.48,10-10,10c-2.76,0-5.26-1.12-7.07-2.93     C441.12,55.26,440,52.76,440,50s1.12-5.26,2.93-7.07C444.74,41.12,447.24,40,450,40S455.26,41.12,457.07,42.93z" style="fill:#74829C;"/><path d="M457.07,242.93c1.81,1.81,2.93,4.31,2.93,7.07c0,5.52-4.48,10-10,10c-2.76,0-5.26-1.12-7.07-2.93     c-1.81-1.811-2.93-4.311-2.93-7.07s1.12-5.26,2.93-7.07c1.811-1.81,4.311-2.93,7.07-2.93S455.26,241.12,457.07,242.93z" style="fill:#74829C;"/><path d="M407.07,92.93c1.81,1.81,2.93,4.31,2.93,7.07c0,5.52-4.48,10-10,10c-2.76,0-5.26-1.12-7.07-2.93     c-1.81-1.81-2.93-4.31-2.93-7.07s1.12-5.26,2.93-7.07C394.74,91.12,397.24,90,400,90S405.26,91.12,407.07,92.93z" style="fill:#74829C;"/><rect height="20" style="fill:#65B2FE;" width="50" x="310" y="400"/><path d="M327.07,132.93c1.81,1.81,2.93,4.31,2.93,7.07c0,5.52-4.48,10-10,10c-2.76,0-5.26-1.12-7.07-2.93     c-1.81-1.81-2.93-4.31-2.93-7.07s1.12-5.26,2.93-7.07c1.811-1.81,4.311-2.93,7.07-2.93S325.26,131.12,327.07,132.93z" style="fill:#74829C;"/><rect height="20" style="fill:#65B2FE;" width="20" x="280" y="400"/><rect height="20" style="fill:#65B2FE;" width="20" x="280" y="370"/><path d="M237.07,42.93c1.81,1.81,2.93,4.31,2.93,7.07c0,5.52-4.48,10-10,10c-2.76,0-5.26-1.12-7.07-2.93     S220,52.76,220,50s1.12-5.26,2.93-7.07S227.24,40,230,40S235.26,41.12,237.07,42.93z" style="fill:#74829C;"/><path d="M181.93,152.6v-13.58c-5.16,0.44-7.73,2.58-7.73,6.4c0,1.84,0.64,3.3,1.93,4.36     C177.42,150.85,179.35,151.79,181.93,152.6z M181.93,186.15v-14.68l-5.3-1.54c-3.61-1.11-6.74-2.3-9.38-3.59     c-2.65-1.29-4.84-2.78-6.57-4.47s-3.02-3.64-3.87-5.85c-0.84-2.21-1.26-4.78-1.26-7.73c0-3.82,0.66-7.23,1.98-10.21     c1.33-2.98,3.11-5.53,5.35-7.67c2.25-2.13,4.9-3.8,7.95-5.02c3.05-1.21,6.35-2,9.88-2.37v-11.15h7.62v11.15     c4.78,0.44,9.27,1.51,13.46,3.2c4.2,1.69,7.84,3.42,10.93,5.19l-7.95,15.01c-0.22-0.3-0.86-0.77-1.93-1.44     c-1.07-0.66-2.43-1.38-4.08-2.15c-1.66-0.77-3.5-1.51-5.52-2.21c-2.03-0.7-4.07-1.19-6.13-1.49v15.01l3.53,0.89     c3.76,1.03,7.14,2.15,10.16,3.36c3.02,1.22,5.57,2.73,7.67,4.53c2.1,1.8,3.72,3.99,4.86,6.57c1.14,2.57,1.71,5.66,1.71,9.27     c0,4.19-0.74,7.76-2.21,10.7c-1.47,2.95-3.44,5.36-5.9,7.23c-2.47,1.88-5.3,3.3-8.5,4.25c-3.2,0.96-6.57,1.51-10.1,1.66v12.8     h-7.62v-12.91c-5.08-0.44-10.1-1.47-15.07-3.09c-4.96-1.62-9.43-3.75-13.41-6.4l7.95-15.79c0.29,0.37,1.09,0.98,2.37,1.82     c1.29,0.85,2.93,1.73,4.92,2.65c1.98,0.92,4.23,1.81,6.73,2.65C176.7,185.18,179.28,185.79,181.93,186.15z M187.11,173.13v13.24     c5.67-0.22,8.5-2.17,8.5-5.85c0-1.91-0.77-3.4-2.32-4.47C191.75,174.99,189.69,174.01,187.11,173.13z" style="fill:#FFFFFF;"/><path d="M67.07,132.93c1.81,1.81,2.93,4.31,2.93,7.07c0,5.52-4.48,10-10,10c-2.76,0-5.26-1.12-7.07-2.93     S50,142.76,50,140s1.12-5.26,2.93-7.07S57.24,130,60,130S65.26,131.12,67.07,132.93z" style="fill:#74829C;"/><path d="M57.07,282.93C58.88,284.74,60,287.24,60,290c0,5.52-4.48,10-10,10c-2.76,0-5.26-1.12-7.07-2.93     C41.12,295.26,40,292.76,40,290s1.12-5.26,2.93-7.07c1.81-1.81,4.31-2.93,7.07-2.93S55.26,281.12,57.07,282.93z" style="fill:#74829C;"/><path d="M480,470h-50c-5.522,0-10-4.478-10-10s4.478-10,10-10h50c5.522,0,10,4.478,10,10     S485.522,470,480,470z" style="fill:#4E679B;"/><path d="M90,470H40c-5.523,0-10-4.478-10-10s4.477-10,10-10h50c5.523,0,10,4.478,10,10S95.523,470,90,470z     " style="fill:#4E679B;"/></g></g></g><g id="Layer_1"/></svg>